<svg width="0" height="0" class="hidden">
  <symbol aria-hidden="true" data-prefix="far" data-icon="bell" role="img"
    xmlns="http://www.w3.org/2000/svg" viewBox="0 0 448 512" id="bell-regular">
    <path fill="#233364"
      d="M439.39 362.29c-19.32-20.76-55.47-51.99-55.47-154.29 0-77.7-54.48-139.9-127.94-155.16V32c0-17.67-14.32-32-31.98-32s-31.98 14.33-31.98 32v20.84C118.56 68.1 64.08 130.3 64.08 208c0 102.3-36.15 133.53-55.47 154.29-6 6.45-8.66 14.16-8.61 21.71.11 16.4 12.98 32 32.1 32h383.8c19.12 0 32-15.6 32.1-32 .05-7.55-2.61-15.27-8.61-21.71zM67.53 368c21.22-27.97 44.42-74.33 44.53-159.42 0-.2-.06-.38-.06-.58 0-61.86 50.14-112 112-112s112 50.14 112 112c0 .2-.06.38-.06.58.11 85.1 23.31 131.46 44.53 159.42H67.53zM224 512c35.32 0 63.97-28.65 63.97-64H160.03c0 35.35 28.65 64 63.97 64z"></path>
  </symbol>
  <symbol aria-hidden="true" data-prefix="fas" data-icon="bell" role="img"
    xmlns="http://www.w3.org/2000/svg" viewBox="0 0 448 512" id="bell-solid">
    <path fill="#233364"
      d="M224 512c35.32 0 63.97-28.65 63.97-64H160.03c0 35.35 28.65 64 63.97 64zm215.39-149.71c-19.32-20.76-55.47-51.99-55.47-154.29 0-77.7-54.48-139.9-127.94-155.16V32c0-17.67-14.32-32-31.98-32s-31.98 14.33-31.98 32v20.84C118.56 68.1 64.08 130.3 64.08 208c0 102.3-36.15 133.53-55.47 154.29-6 6.45-8.66 14.16-8.61 21.71.11 16.4 12.98 32 32.1 32h383.8c19.12 0 32-15.6 32.1-32 .05-7.55-2.61-15.27-8.61-21.71z"></path>
  </symbol>
  <symbol xmlns="http://www.w3.org/2000/svg" viewBox="0 0 576 512" id="home-regular">
    <path fill="#233364"
      d="M576 247.992C576 241.19 573.123 234.435 567.529 229.679L303.531 5.672C299.047 1.891 293.523 0 288 0S276.953 1.891 272.469 5.672L8.471 229.679C2.877 234.435 0 241.19 0 247.992C0 264.08 13.826 271.992 24.02 271.992C29.499 271.992 35.009 270.125 39.533 266.305L64.002 245.541V471.999C64.002 494.062 81.939 512 104.001 512H200.001C222.063 512 240 494.062 240 471.999V351.995H336V471.999C336 494.062 353.937 512 375.999 512H471.999C494.061 512 511.998 494.062 511.998 471.999V245.541L536.467 266.305C540.983 270.118 546.498 271.993 551.983 271.993C562.143 271.993 576 263.963 576 247.992ZM463.999 463.999H383.999V343.995C383.999 321.932 366.062 303.994 344 303.994H232C209.938 303.994 192.001 321.932 192.001 343.995V463.999H112.001V207.991C112.001 207.028 111.564 206.207 111.452 205.274L288 55.455L463.999 204.809V463.999Z "></path>
  </symbol>
  <symbol xmlns="http://www.w3.org/2000/svg" viewBox="0 0 576 512" id="home-solid">
    <path fill="#233364"
      d="M575.8 255.5c0 18-15 32.1-32 32.1l-32 0 .7 160.2c0 2.7-.2 5.4-.5 8.1l0 16.2c0 22.1-17.9 40-40 40l-16 0c-1.1 0-2.2 0-3.3-.1c-1.4 .1-2.8 .1-4.2 .1L416 512l-24 0c-22.1 0-40-17.9-40-40l0-24 0-64c0-17.7-14.3-32-32-32l-64 0c-17.7 0-32 14.3-32 32l0 64 0 24c0 22.1-17.9 40-40 40l-24 0-31.9 0c-1.5 0-3-.1-4.5-.2c-1.2 .1-2.4 .2-3.6 .2l-16 0c-22.1 0-40-17.9-40-40l0-112c0-.9 0-1.9 .1-2.8l0-69.7-32 0c-18 0-32-14-32-32.1c0-9 3-17 10-24L266.4 8c7-7 15-8 22-8s15 2 21 7L564.8 231.5c8 7 12 15 11 24z"></path>
  </symbol>
  <symbol xmlns="http://www.w3.org/2000/svg" viewBox="0 0 512 512" id="screwdriver-wrench-regular">
    <path fill="#233364"
      d="M223.988 96.099L223.993 144.843L253.744 174.587C246.866 139.716 257.237 104.22 282.233 79.22C302.48 58.971 329.352 48.094 357.225 48.092L358.35 48.092L300.984 105.215L316.117 195.828L406.737 210.943L463.978 153.694C464.231 181.941 453.359 209.189 432.737 229.688C423.489 239.063 412.615 246.188 400.991 251.314C402.741 252.939 404.866 254.188 406.616 255.938L437.242 286.681C447.741 280.306 457.74 272.681 466.738 263.681C504.732 225.682 520.351 169.437 507.347 117.195C504.346 104.946 494.97 95.323 482.971 91.95C470.722 88.576 457.723 92.077 448.974 100.952L390.233 159.576L357.86 154.204L352.482 121.709L411.098 63.21C419.972 54.21 423.345 41.211 419.969 29.213C416.718 17.09 406.968 7.717 394.719 4.718C341.596 -8.525 286.851 6.728 248.232 45.227C237.983 55.477 229.735 66.977 222.862 79.226L223.987 79.976L223.988 96.099ZM106.029 453.943C93.282 466.692 70.783 466.695 57.908 453.947C51.533 447.574 47.907 438.95 47.906 429.951C47.905 420.827 51.404 412.328 57.903 405.953L192.257 271.581L158.381 237.713L24.027 371.96C8.53 387.46 0.032 408.083 0.034 429.955S8.538 472.45 24.038 487.946C39.539 503.443 60.163 511.94 82.036 511.938C103.91 511.936 124.533 503.435 140.031 487.936L240.89 387.063C231.264 371.191 225.762 353.193 225.261 334.946L106.029 453.943ZM501.123 395.663L383.995 278.562C360.869 255.442 326.371 250.946 298.624 264.697L191.996 158.094L191.99 95.977L63.99 0L0 63.998L96.006 191.974L158.127 191.969L264.755 298.571C251.133 326.319 255.511 360.815 278.637 383.935L395.765 501.035C410.265 515.657 433.889 515.655 448.387 501.03L501.128 448.281C515.626 433.657 515.624 410.159 501.123 395.663Z"></path>
  </symbol>
  <symbol xmlns="http://www.w3.org/2000/svg" viewBox="0 0 512 512" id="screwdriver-wrench-solid">
    <path fill="#233364"
      d="M331.758 224.996C360.047 224.996 386.635 236.006 406.615 255.986L426.205 275.557C466.217 257.818 497.455 222.256 507.824 178.91C513.549 154.988 513.164 131.83 508.039 110.506C505.426 99.629 491.609 95.992 483.697 103.902L414.797 172.807H339.193V97.203L408.096 28.301C416.008 20.389 412.371 6.574 401.492 3.961C380.17 -1.164 357.012 -1.549 333.088 4.176C277.785 17.404 234.699 64.395 225.842 120.564C224.531 128.871 224.191 137.004 224.281 145.035L307.064 227.896C315.154 225.98 323.463 224.996 331.758 224.996ZM384 278.625C360.842 255.467 326.424 251.035 298.604 264.705L192 158V96L64 0L0 64L96 192H158L264.705 298.604C251.035 326.424 255.467 360.842 278.625 384L395.625 501.125C410.25 515.625 433.875 515.625 448.375 501.125L501.125 448.375C515.625 433.875 515.625 410.25 501.125 395.625L384 278.625ZM227.879 307.047L168.664 247.887L19.775 396.775C-6.592 423.143 -6.592 465.857 19.775 492.225C32.959 505.408 50.215 512 67.5 512S102.041 505.408 115.225 492.225L234.334 373.115C225.467 352.344 222.592 329.354 227.879 307.047ZM64 472C50.746 472 40 461.254 40 448C40 434.744 50.746 424 64 424S88 434.744 88 448C88 461.254 77.254 472 64 472Z"></path>
  </symbol>
  <symbol xmlns="http://www.w3.org/2000/svg" viewBox="0 0 448 512" id="user-regular">
    <path fill="#233364"
      d="M304 128a80 80 0 1 0 -160 0 80 80 0 1 0 160 0zM96 128a128 128 0 1 1 256 0A128 128 0 1 1 96 128zM49.3 464l349.5 0c-8.9-63.3-63.3-112-129-112l-91.4 0c-65.7 0-120.1 48.7-129 112zM0 482.3C0 383.8 79.8 304 178.3 304l91.4 0C368.2 304 448 383.8 448 482.3c0 16.4-13.3 29.7-29.7 29.7L29.7 512C13.3 512 0 498.7 0 482.3z"></path>
  </symbol>
  <symbol xmlns="http://www.w3.org/2000/svg" viewBox="0 0 448 512" id="user-solid">
    <path fill="#233364"
      d="M224 256A128 128 0 1 0 224 0a128 128 0 1 0 0 256zm-45.7 48C79.8 304 0 383.8 0 482.3C0 498.7 13.3 512 29.7 512l388.6 0c16.4 0 29.7-13.3 29.7-29.7C448 383.8 368.2 304 269.7 304l-91.4 0z"></path>
  </symbol>
</svg>