<svg xmlns="http://www.w3.org/2000/svg" xmlns:xlink="http://www.w3.org/1999/xlink" version="1.1"
	id="Layer_1" x="42px" y="-105px" width="100%" viewBox="50 50 160 160"
	enable-background="new 0 0 256 256" xml:space="preserve">
	<path fill="#55ADB4" opacity="1" stroke="none" d=" M72.876938,171.000092   C72.877052,165.170639 73.104698,159.828262 72.804291,154.515778   C72.572159,150.410599 73.907982,149.044235 78.122025,149.077393   C100.937561,149.256927 123.755241,149.162094 146.572189,149.162094   C157.897385,149.162094 169.225555,149.311707 180.546234,149.085770   C184.759079,149.001678 185.993454,150.524872 185.945190,154.606125   C185.762009,170.092834 185.746262,185.584702 185.956711,201.070724   C186.011444,205.099640 184.653564,206.136673 180.791245,206.122589   C146.483017,205.997375 112.173866,205.987961 77.865791,206.132416   C73.845169,206.149338 72.715508,204.846161 72.803635,200.977127   C73.027328,191.155975 72.877434,181.326309 72.876938,171.000092  M79.117050,189.531982   C81.177391,190.356506 83.233925,191.888000 85.298630,191.899109   C114.434837,192.055679 143.572144,192.006393 172.709198,192.002487   C173.873840,192.002319 175.162247,192.260330 176.168961,191.849319   C177.215210,191.422150 177.989090,190.327881 178.882080,189.525345   C177.958435,188.746750 177.137115,187.743683 176.078537,187.261108   C175.242691,186.880066 174.115021,187.117264 173.116959,187.117126   C143.646912,187.113266 114.176781,187.085754 84.707062,187.182770   C82.893394,187.188736 81.082985,188.183090 79.117050,189.531982  M136.500000,168.033554   C148.992752,168.033127 161.486496,168.107559 173.977020,167.940781   C175.601654,167.919098 177.209671,166.654633 178.825394,165.965820   C177.205902,165.274277 175.593384,164.565369 173.960327,163.907486   C173.673569,163.791992 173.300629,163.890152 172.967484,163.890152   C143.651184,163.890106 114.334869,163.886398 85.018570,163.900970   C83.527840,163.901703 82.001266,163.900482 80.564362,164.224136   C79.997673,164.351776 79.274033,165.367264 79.273949,165.978561   C79.273865,166.585648 80.004799,167.596771 80.570786,167.720871   C82.010582,168.036545 83.537292,168.021683 85.029320,168.023117   C101.852867,168.039230 118.676437,168.033508 136.500000,168.033554  M137.500000,175.882050   C119.673012,175.882431 101.845604,175.830505 84.019753,175.972626   C82.422035,175.985367 80.834335,177.254593 79.241982,177.940277   C80.748070,178.612427 82.251953,179.865250 83.760582,179.871002   C113.916054,179.985794 144.072174,179.985718 174.227661,179.871353   C175.739288,179.865616 177.246201,178.618057 178.755310,177.948715   C177.165985,177.260223 175.584900,175.997787 173.986023,175.974854   C162.159332,175.805145 150.329117,175.882217 137.500000,175.882050  z"/>
	<path fill="#53ABB3" opacity="1" stroke="none" d=" M168.000000,135.985809   C176.659775,135.987045 184.819672,136.015945 192.979233,135.975525   C196.115936,135.959976 198.877838,136.580811 198.919067,140.363373   C198.959274,144.052231 196.374481,144.994507 193.159561,144.993530   C150.362411,144.980713 107.565254,144.981247 64.768105,144.990891   C61.534180,144.991623 58.993706,143.980362 59.082264,140.293701   C59.173431,136.498291 61.975266,135.974106 65.086601,135.975952   C99.224388,135.996063 133.362198,135.986969 168.000000,135.985809  z"/>
	<path fill="#52ABB3" opacity="1" stroke="none" d=" M153.188721,118.168213   C150.011749,118.386528 148.751617,117.262680 148.822006,114.438011   C148.937790,109.791901 148.609238,105.118889 149.020004,100.506386   C149.131439,99.255119 151.199982,97.207237 152.411560,97.176949   C163.031281,96.911476 173.661407,97.103294 184.286026,96.968208   C187.491592,96.927444 188.241913,98.388512 188.151443,101.205887   C188.018265,105.352501 187.944916,109.516075 188.171555,113.654602   C188.363922,117.167404 186.982559,118.283699 183.551865,118.227409   C173.592361,118.063980 163.628433,118.170303 153.188721,118.168213  z"/>
	<path fill="#53ACB4" opacity="1" stroke="none" d=" M82.859581,121.953583   C82.863335,116.139732 82.927750,110.819016 82.845238,105.500572   C82.805161,102.917160 83.848419,101.770752 86.431671,102.154968   C90.372498,102.741081 94.522232,109.040932 93.544029,112.981331   C93.144257,114.591667 92.656013,116.180046 92.207695,117.778328   C91.078690,121.803307 94.210876,127.677170 98.124245,128.873489   C101.405792,129.876663 107.566307,123.331032 106.858421,119.432793   C106.474785,117.320190 105.628410,115.296005 105.094009,113.205544   C103.660873,107.599396 109.348099,101.769409 115.968399,102.743103   C115.968399,111.237640 116.068642,119.839592 115.823952,128.431717   C115.797485,129.361023 113.791054,130.985764 112.672050,131.012970   C103.866463,131.227020 95.048668,131.266739 86.248093,130.966125   C85.083237,130.926346 83.558601,128.836563 82.992828,127.387001   C82.429298,125.943192 82.863213,124.110077 82.859581,121.953583  z"/>
	<path fill="#55ADB4" opacity="1" stroke="none" d=" M115.922211,54.483112   C116.301933,58.875622 116.301933,63.123676 116.301933,68.290565   C114.144905,67.120201 113.116791,66.659546 112.192558,66.043129   C109.113358,63.989433 106.262352,62.047779 105.611618,68.140526   C105.486824,69.309021 103.895493,71.052856 102.758560,71.250015   C98.624779,71.966835 94.095047,73.228958 90.298294,72.177612   C87.185883,71.315758 83.786819,67.841049 82.726189,64.762672   C82.199005,63.232567 86.308197,59.530128 88.925972,57.657558   C91.406013,55.883507 94.621925,55.031288 97.620308,54.124420   C99.803017,53.464256 102.271675,51.933342 104.127792,55.247284   C104.548897,55.999146 106.869843,55.995232 108.255852,55.830509   C110.709175,55.538940 113.116127,54.857151 115.922211,54.483112  z"/>
	<path fill="#55ADB4" opacity="1" stroke="none" d=" M93.608246,92.794205   C90.968910,89.257729 88.587692,85.961487 86.397942,82.542625   C84.801338,80.049828 83.457169,77.395355 82.719398,74.015892   C84.281013,74.747635 85.846367,75.471512 87.403580,76.212486   C94.117584,79.407196 100.857719,78.454956 106.144875,74.008240   C110.266663,70.541634 112.894157,71.212425 116.279877,74.194481   C113.658379,79.370056 111.352921,84.779312 108.288902,89.717949   C105.496323,94.219101 100.165482,95.096428 93.608246,92.794205  z"/>
	<path fill="#55ADB4" opacity="1" stroke="none" d=" M120.080017,117.998566   C120.080132,113.119873 120.080132,108.736763 120.080132,103.253372   C125.787651,105.983757 128.396561,109.587463 128.901077,114.378677   C129.367401,118.807266 128.989014,123.319283 129.117661,127.790680   C129.221039,131.383545 126.800613,131.141266 124.419594,131.159073   C122.138573,131.176147 119.994965,131.183350 120.079849,127.940979   C120.162247,124.794197 120.086304,121.643257 120.080017,117.998566  z"/>
	<path fill="#55ADB4" opacity="1" stroke="none" d=" M69.124207,125.827736   C69.419724,121.075043 69.295448,116.709175 70.136459,112.537933   C70.885857,108.821098 72.835785,105.436035 78.156021,103.914238   C78.156021,111.716637 77.995071,119.063843 78.223114,126.398949   C78.339211,130.133179 76.983315,131.240860 73.334412,131.258469   C69.481003,131.277039 68.842896,129.378067 69.124207,125.827736  z"/>
	<path fill="#55ADB4" opacity="1" stroke="none" d=" M91.515297,99.522141   C91.738243,98.632492 92.138763,97.527077 92.490471,97.542389   C97.286797,97.751358 102.076370,98.115372 108.161453,98.529175   C105.311478,101.589745 102.622459,104.477463 98.903358,108.471375   C96.129173,105.156097 93.899673,102.491760 91.515297,99.522141  z"/>
	<path fill="#52ABB3" opacity="1" stroke="none" d=" M164.056641,128.792480   C164.125748,123.318085 166.403854,121.540062 171.039490,123.186462   C171.913910,123.497025 172.878647,125.070152 172.858734,126.041351   C172.825378,127.668007 171.981171,130.682281 171.568985,130.666977   C169.063614,130.574005 166.583908,129.789536 164.056641,128.792480  z"/>
	<path fill="#55ADB4" opacity="1" stroke="none" d=" M100.822517,114.459435   C101.545029,117.855881 103.690773,121.157364 99.552185,123.430046   C96.476898,120.969353 95.830215,116.383347 98.303604,113.841660   C98.648956,113.486778 99.879753,113.993538 100.822517,114.459435  z"/>
	<path fill="#A2D8DF" opacity="1" stroke="none" d=" M79.194054,189.124786   C81.082985,188.183090 82.893394,187.188736 84.707062,187.182770   C114.176781,187.085754 143.646912,187.113266 173.116959,187.117126   C174.115021,187.117264 175.242691,186.880066 176.078537,187.261108   C177.137115,187.743683 177.958435,188.746750 178.882080,189.525345   C177.989090,190.327881 177.215210,191.422150 176.168961,191.849319   C175.162247,192.260330 173.873840,192.002319 172.709198,192.002487   C143.572144,192.006393 114.434837,192.055679 85.298630,191.899109   C83.233925,191.888000 81.177391,190.356506 79.194054,189.124786  z"/>
	<path fill="#AADDE3" opacity="1" stroke="none" d=" M136.000000,168.033600   C118.676437,168.033508 101.852867,168.039230 85.029320,168.023117   C83.537292,168.021683 82.010582,168.036545 80.570786,167.720871   C80.004799,167.596771 79.273865,166.585648 79.273949,165.978561   C79.274033,165.367264 79.997673,164.351776 80.564362,164.224136   C82.001266,163.900482 83.527840,163.901703 85.018570,163.900970   C114.334869,163.886398 143.651184,163.890106 172.967484,163.890152   C173.300629,163.890152 173.673569,163.791992 173.960327,163.907486   C175.593384,164.565369 177.205902,165.274277 178.825394,165.965820   C177.209671,166.654633 175.601654,167.919098 173.977020,167.940781   C161.486496,168.107559 148.992752,168.033127 136.000000,168.033600  z"/>
	<path fill="#A7DBE1" opacity="1" stroke="none" d=" M138.000000,175.881866   C150.329117,175.882217 162.159332,175.805145 173.986023,175.974854   C175.584900,175.997787 177.165985,177.260223 178.755310,177.948715   C177.246201,178.618057 175.739288,179.865616 174.227661,179.871353   C144.072174,179.985718 113.916054,179.985794 83.760582,179.871002   C82.251953,179.865250 80.748070,178.612427 79.241989,177.940277   C80.834335,177.254593 82.422035,175.985367 84.019753,175.972626   C101.845604,175.830505 119.673012,175.882431 138.000000,175.881866  z"/>
</svg>